<?xml version="1.0" encoding="utf-8" standalone="no"?>
<!DOCTYPE svg PUBLIC "-//W3C//DTD SVG 1.1//EN"
  "http://www.w3.org/Graphics/SVG/1.1/DTD/svg11.dtd">
<svg xmlns:xlink="http://www.w3.org/1999/xlink" width="464.410156pt" height="80pt" viewBox="0 0 464.410156 80" xmlns="http://www.w3.org/2000/svg" version="1.1">
 <metadata>
  <rdf:RDF xmlns:dc="http://purl.org/dc/elements/1.1/" xmlns:cc="http://creativecommons.org/ns#" xmlns:rdf="http://www.w3.org/1999/02/22-rdf-syntax-ns#">
   <cc:Work>
    <dc:type rdf:resource="http://purl.org/dc/dcmitype/StillImage"/>
    <dc:date>2025-12-21T23:29:08.416793</dc:date>
    <dc:format>image/svg+xml</dc:format>
    <dc:creator>
     <cc:Agent>
      <dc:title>Matplotlib v3.7.5, https://matplotlib.org/</dc:title>
     </cc:Agent>
    </dc:creator>
   </cc:Work>
  </rdf:RDF>
 </metadata>
 <defs>
  <style type="text/css">*{stroke-linejoin: round; stroke-linecap: butt}</style>
 </defs>
 <g id="figure_1">
  <g id="patch_1">
   <path d="M 0 80 
L 464.410156 80 
L 464.410156 0 
L 0 0 
L 0 80 
z
" style="fill: none"/>
  </g>
  <g id="axes_1">
   <g id="patch_2">
    <path d="M 0 62.525641 
L 24.282051 62.525641 
C 36.012821 62.525641 42.910256 61.461538 48.24359 58.75641 
C 58.410256 53.576923 64.897436 42.012821 64.897436 29.128205 
C 64.897436 21.833333 62.512821 15.833333 58 11.897436 
C 53.166667 7.794872 48.487179 6.653846 36.346154 6.653846 
L 10.089744 6.653846 
L 8.935897 13.294872 
L 10.74359 13.461538 
C 13.615385 13.705128 15.089744 14.935897 15.089744 17.230769 
C 15.089744 18.141026 15.012821 19.282051 14.769231 20.435897 
L 9.589744 48.74359 
C 8.615385 53.833333 7.384615 55.141026 3.025641 55.717949 
L 1.230769 55.884615 
L 0 62.525641 
z
M 28.961538 20.75641 
C 29.782051 16.24359 29.948718 15.833333 30.769231 15.012821 
C 31.74359 14.038462 34.294872 13.371795 37.333333 13.371795 
C 46.025641 13.371795 50.705128 18.551282 50.705128 28.141026 
C 50.705128 43.076923 41.179487 55.384615 29.692308 55.384615 
C 25.269231 55.384615 23.384615 54.564103 23.384615 52.679487 
C 23.384615 52.192308 23.538462 50.628205 23.794872 49.641026 
L 28.961538 20.75641 
z
M 92.217936 52.512821 
C 89.923064 53.74359 88.038449 54.397436 86.974346 54.397436 
C 85.243577 54.397436 83.769218 53.089744 83.769218 51.525641 
C 83.769218 50.961538 83.935885 49.884615 84.179475 48.74359 
C 84.179475 48.410256 84.346141 47.679487 84.589731 46.525641 
L 89.269218 20.602564 
L 84.999987 20.602564 
C 79.012808 22.487179 75.3205 23.141026 69.243577 23.474359 
L 68.012808 30.115385 
L 68.999987 30.192308 
C 72.615372 30.525641 73.846141 31.269231 73.846141 33.064103 
C 73.846141 33.730769 73.679475 35.115385 73.512808 36.192308 
L 70.80768 51.115385 
C 70.397423 53.012821 70.30768 53.987179 70.30768 55.141026 
C 70.30768 59.987179 74.576911 63.269231 80.897423 63.269231 
C 85.8205 63.269231 91.153834 61.051282 95.666654 57.192308 
L 92.217936 52.512821 
z
M 85.576911 -0 
C 80.8205 -0 76.30768 4.512821 76.30768 9.269231 
C 76.30768 13.128205 78.923064 15.833333 82.705116 15.833333 
C 87.461526 15.833333 92.141013 11.320513 92.141013 6.564103 
C 92.141013 2.628205 89.512808 -0 85.576911 -0 
z
M 121.756385 35.615385 
C 118.474334 34.551282 118.064078 34.384615 117.333308 33.641026 
C 116.589719 33.064103 116.179462 32 116.179462 30.935897 
C 116.179462 28.307692 118.474334 26.589744 121.923052 26.589744 
C 124.794847 26.589744 126.358949 27.24359 127.910231 29.128205 
C 130.37177 32.089744 131.769206 32.910256 134.397411 32.910256 
C 137.269206 32.910256 139.397411 30.935897 139.397411 28.397436 
C 139.397411 23.628205 131.602539 19.858974 121.679462 19.858974 
C 109.205103 19.858974 100.346129 26.089744 100.346129 34.794872 
C 100.346129 39.961538 103.705103 43.24359 111.089719 45.371795 
L 116.923052 47.012821 
C 120.525616 48.089744 121.679462 49.064103 121.679462 51.282051 
C 121.679462 54.320513 118.564078 56.538462 114.294847 56.538462 
C 111.666642 56.538462 109.858949 55.717949 108.141001 53.666667 
C 105.025616 50.141026 103.38459 49.153846 100.423052 49.153846 
C 97.307667 49.153846 95.012795 51.205128 95.012795 54.076923 
C 95.012795 56.128205 96.153821 58.012821 98.12818 59.320513 
C 102.064078 61.782051 107.974334 63.269231 114.205103 63.269231 
C 127.499975 63.269231 137.846129 56.371795 137.846129 47.512821 
C 137.846129 44.807692 136.448693 41.935897 134.230744 40.371795 
C 132.923052 39.384615 130.948693 38.487179 128.243565 37.666667 
L 121.756385 35.615385 
z
M 158.19227 60.307692 
C 161.884578 62.448718 164.923039 63.269231 168.525603 63.269231 
C 181.333296 63.269231 192.653809 51.038462 192.653809 37.25641 
C 192.653809 27 186.166629 19.858974 176.974321 19.858974 
C 172.307655 19.858974 168.69227 21.423077 164.512783 25.525641 
L 165.410219 20.602564 
L 161.064065 20.602564 
C 155.230732 22.487179 151.384578 23.141026 145.307655 23.474359 
L 144.076886 30.115385 
L 145.140988 30.192308 
C 148.756373 30.525641 149.987142 31.269231 149.987142 33.153846 
C 149.987142 33.807692 149.897398 34.294872 149.576886 36.192308 
L 143.743552 68.192308 
C 142.923039 71.961538 141.538424 73.115385 137.346116 73.192308 
L 135.94868 73.269231 
L 134.717911 80 
L 162.294834 80 
L 163.525603 73.269231 
L 161.307655 73.192308 
C 157.782014 73.115385 156.628168 72.294872 156.628168 69.74359 
C 156.628168 68.75641 156.628168 68.75641 156.717911 68.192308 
L 158.19227 60.307692 
z
M 159.499962 53.5 
C 161.230732 45.294872 162.538424 40.294872 163.93586 36.923077 
C 166.307655 31.179487 169.846116 27.730769 173.371757 27.730769 
C 176.897398 27.730769 178.782014 30.602564 178.782014 36.025641 
C 178.782014 40.294872 177.384578 45.782051 175.423039 49.564103 
C 173.205091 53.910256 170.333296 56.038462 166.884578 56.038462 
C 164.346116 56.038462 161.794834 55.141026 159.499962 53.5 
z
M 198.397386 62.525641 
L 211.358924 62.525641 
L 213.076873 53.333333 
C 213.487129 51.115385 214.397386 46.692308 215.051232 43.897436 
C 216.448668 38.153846 217.179437 36.025641 218.820463 33.397436 
C 220.140976 31.423077 222.025591 30.038462 223.589694 30.038462 
C 224.410206 30.038462 224.897386 30.282051 225.961488 31.102564 
C 227.935847 32.576923 229.24354 33.064103 231.217899 33.064103 
C 235.487129 33.064103 238.602514 30.192308 238.602514 26.25641 
C 238.602514 22.487179 235.230719 19.858974 230.564052 19.858974 
C 225.961488 19.858974 221.538411 22.24359 217.846104 26.833333 
L 218.987129 20.602564 
L 214.717899 20.602564 
C 208.730719 22.487179 205.038411 23.141026 198.974309 23.474359 
L 197.74354 30.115385 
L 198.717899 30.192308 
C 202.333283 30.525641 203.564052 31.269231 203.564052 33.064103 
C 203.564052 33.730769 203.397386 35.115385 203.230719 36.192308 
L 198.397386 62.525641 
z
M 263.384553 19.858974 
C 256.153784 19.858974 249.589681 22.24359 245.166604 26.5 
C 239.999937 31.423077 236.717886 39.217949 236.717886 46.525641 
C 236.717886 56.858974 244.346091 63.269231 256.56404 63.269231 
C 264.281989 63.269231 271.179425 60.474359 275.935835 55.384615 
C 280.281989 50.871795 283.32045 43.410256 283.32045 37.25641 
C 283.32045 26.089744 276.179425 19.858974 263.384553 19.858974 
z
M 263.051219 27.076923 
C 267.56404 27.076923 269.538399 29.461538 269.538399 34.871795 
C 269.538399 38.807692 267.640963 46.358974 265.756348 49.974359 
C 263.705066 53.987179 260.833271 56.038462 257.230707 56.038462 
C 253.205066 56.038462 250.910194 53.423077 250.910194 48.987179 
C 250.910194 44.397436 252.628143 37.012821 254.679425 33.153846 
C 256.897373 28.807692 259.358912 27.076923 263.051219 27.076923 
z
M 288.564027 62.525641 
L 301.538386 62.525641 
L 307.358899 30.602564 
C 309.243515 29.628205 311.38454 29.051282 313.435822 29.051282 
C 316.38454 29.051282 318.269156 30.602564 318.269156 33.153846 
C 318.269156 33.730769 318.192233 34.628205 317.948643 35.525641 
C 317.781976 36.602564 317.615309 37.25641 317.615309 37.5 
L 313.025566 62.525641 
L 325.987104 62.525641 
L 331.730694 30.935897 
C 333.858899 29.538462 335.333258 29.051282 337.38454 29.051282 
C 340.346079 29.051282 342.564027 30.602564 342.564027 32.576923 
C 342.564027 33.064103 342.564027 33.064103 342.064027 36.512821 
L 339.358899 51.282051 
C 339.025566 53.333333 338.948643 53.833333 338.948643 55.141026 
C 338.948643 60.141026 342.88454 63.269231 349.37172 63.269231 
C 354.205053 63.269231 359.051207 61.371795 362.820438 57.935897 
L 359.38454 53.25641 
C 357.897361 54.076923 356.833258 54.397436 355.602489 54.397436 
C 353.717874 54.397436 352.487104 53.166667 352.487104 51.282051 
C 352.487104 50.705128 352.564027 49.974359 352.730694 49.230769 
L 355.769156 32.166667 
C 356.012745 30.858974 356.179412 29.705128 356.179412 28.884615 
C 356.179412 23.474359 351.333258 19.858974 343.948643 19.858974 
C 339.769156 19.858974 334.923002 21.25641 330.576848 23.794872 
C 328.525566 21.423077 324.512745 19.858974 320.564027 19.858974 
C 316.307617 19.858974 311.705053 21.333333 308.589668 23.794872 
L 309.166592 20.602564 
L 304.897361 20.602564 
C 298.910181 22.487179 295.217874 23.141026 289.140951 23.474359 
L 287.910181 30.115385 
L 288.897361 30.192308 
C 292.512745 30.525641 293.743515 31.269231 293.743515 33.064103 
C 293.743515 33.730769 293.576848 35.115385 293.410181 36.192308 
L 288.564027 62.525641 
z
M 402.205041 48.24359 
C 396.551194 53.166667 391.705041 55.384615 386.781964 55.384615 
C 381.858887 55.384615 378.666579 52.346154 378.666579 47.75641 
C 378.666579 46.692308 378.743502 45.628205 378.910169 44.230769 
C 379.807605 44.307692 380.717861 44.307692 381.038374 44.307692 
C 388.012733 44.307692 394.166579 43.24359 399.666579 41.115385 
C 405.576835 38.807692 408.769143 34.871795 408.769143 29.948718 
C 408.769143 23.884615 403.025553 19.858974 394.333246 19.858974 
C 378.166579 19.858974 364.717861 31.679487 364.717861 45.871795 
C 364.717861 56.205128 372.589656 63.269231 384.076835 63.269231 
C 389.743502 63.269231 394.820425 61.628205 400.820425 57.769231 
C 403.43581 56.038462 405.166579 54.730769 406.640938 53.089744 
L 402.205041 48.24359 
z
M 380.051194 38.564103 
C 380.551194 36.102564 381.781964 33.641026 383.743502 31.102564 
C 386.205041 27.897436 389.076835 26.25641 392.038374 26.25641 
C 394.743502 26.25641 396.628117 27.897436 396.628117 30.192308 
C 396.628117 35.038462 389.653759 38.564103 380.051194 38.564103 
z
M 460.871695 51.935897 
C 460.628105 52.192308 460.628105 52.192308 459.974259 52.679487 
C 458.333233 53.910256 457.922977 54.076923 456.692208 54.076923 
C 454.884515 54.076923 453.653746 52.75641 453.653746 50.961538 
C 453.653746 49.807692 453.897336 47.75641 454.307592 45.371795 
L 462.102464 2.461538 
L 457.435797 2.461538 
C 452.9999 4.435897 447.333233 5.576923 441.922977 5.576923 
L 440.692208 12.307692 
L 441.679387 12.397436 
C 445.205028 12.641026 446.358874 13.371795 446.358874 15.179487 
C 446.358874 15.75641 446.192208 17.064103 445.948618 18.294872 
L 445.205028 22.653846 
C 442.25631 20.923077 438.474259 19.858974 435.281951 19.858974 
C 422.230669 19.858974 410.74349 31.923077 410.74349 45.628205 
C 410.74349 55.794872 417.640925 63.269231 426.910156 63.269231 
C 430.602464 63.269231 434.371695 61.871795 437.166567 59.653846 
C 437.987079 58.910256 438.717849 58.25641 440.448618 56.615385 
C 441.51272 60.884615 445.038361 63.269231 450.294772 63.269231 
C 454.974259 63.269231 460.384515 60.717949 464.410156 56.615385 
L 460.871695 51.935897 
z
M 443.897336 29.538462 
C 441.679387 42.25641 440.115284 47.423077 437.24349 51.115385 
C 435.025541 53.910256 432.653746 55.384615 430.269131 55.384615 
C 426.666567 55.384615 424.525541 52.435897 424.525541 47.423077 
C 424.525541 42.5 426.25631 36.192308 428.628105 32.5 
C 431.01272 28.807692 433.717849 27.076923 437.166567 27.076923 
C 439.705028 27.076923 441.51272 27.730769 443.897336 29.538462 
z
" clip-path="url(#p1b3cd37f6a)" style="fill: #ffffff"/>
   </g>
  </g>
 </g>
 <defs>
  <clipPath id="p1b3cd37f6a">
   <rect x="0" y="0" width="464.410156" height="80"/>
  </clipPath>
 </defs>
</svg>
